<?xml version="1.0" standalone="no"?><!DOCTYPE svg PUBLIC "-//W3C//DTD SVG 1.1//EN" "http://www.w3.org/Graphics/SVG/1.1/DTD/svg11.dtd"><svg t="1696384872490" class="icon" viewBox="0 0 1024 1024" version="1.1" xmlns="http://www.w3.org/2000/svg" p-id="1998" xmlns:xlink="http://www.w3.org/1999/xlink" width="200" height="200"><path d="M718.379027 446.637926L520.477677 335.26834a19.811986 19.811986 0 0 0-19.010767 0L303.419884 446.637926a18.209546 18.209546 0 0 0-9.541802 16.170077c-0.218515 0.874058-0.218515 1.748116-0.218515 2.913528v422.097284c0 10.488699 5.60854 20.249016 14.931828 25.566203l187.995357 105.833884a32.777183 32.777183 0 0 0 14.276284 3.714747H510.935875c5.098673 0 10.343022-1.383926 14.276284-3.860424l187.922518-105.615369a29.135274 29.135274 0 0 0 15.150343-25.639041V463.609223a19.811986 19.811986 0 0 0-9.905993-16.971297z m-236.724103 496.902101l-129.65197-72.911024V507.822002l129.65197 72.911023v362.807002z m188.286709-72.911024L540.362501 943.540027V580.660187l129.579132-72.911024v362.87984zM303.492722 148.511233l198.265541 111.442424a19.811986 19.811986 0 0 0 18.719414-0.145677l198.119864-111.442423a19.374957 19.374957 0 0 0-0.218514-33.796918L520.550515 3.344729a20.176177 20.176177 0 0 0-19.083605 0L303.274208 114.714315a19.447796 19.447796 0 0 0 0.218514 33.796918z m132.201307 149.391118a19.447796 19.447796 0 0 0-9.833155-16.898459L227.886686 169.634307a20.030501 20.030501 0 0 0-18.937928 0L11.120246 280.931054A19.520634 19.520634 0 0 0 1.068577 297.902351V722.840325c0 10.561537 5.681378 20.321854 14.931828 25.566203l188.068194 105.761045c4.224615 2.40366 9.25045 3.641909 14.203446 3.787586h0.145677a28.406892 28.406892 0 0 0 14.276284-3.787586l14.85899-8.522067V415.026153l177.870849-100.006828a18.937928 18.937928 0 0 0 10.270184-17.116974z m-246.484419 480.732024l-129.579132-72.838185V342.91635l129.579132 72.911024v362.807001z m831.156533-484.519609l-0.364191-1.748117a20.030501 20.030501 0 0 0-9.031935-11.435595l-185.810211-104.449958-12.455329-6.992466c-0.80122-0.364191-1.60244-0.728382-4.370291-1.675278a19.302119 19.302119 0 0 0-14.421961 1.893793L596.302228 280.858216c-4.880158 2.549336-8.376391 7.138142-8.886259 10.488699a16.971297 16.971297 0 0 0-1.311087 6.555436c0 6.919628 3.787586 13.402226 9.833155 16.971298l178.162201 100.225343v430.765028l15.077505 8.522068a29.135274 29.135274 0 0 0 28.47973-0.072838l188.28671-105.761046a29.863656 29.863656 0 0 0 14.786151-25.566203V300.743041l0.145677-2.84069c0-0.946896 0-2.330822-0.509868-3.787585z m-58.052033 411.681424l-129.65197 72.838185V415.754535l129.65197-72.983861v363.025516z" p-id="1999" fill="#e6e6e6"></path></svg>