<?xml version="1.0" standalone="no"?><!DOCTYPE svg PUBLIC "-//W3C//DTD SVG 1.1//EN" "http://www.w3.org/Graphics/SVG/1.1/DTD/svg11.dtd"><svg t="1696384855042" class="icon" viewBox="0 0 1024 1024" version="1.1" xmlns="http://www.w3.org/2000/svg" p-id="1504" xmlns:xlink="http://www.w3.org/1999/xlink" width="200" height="200"><path d="M337.249467 51.393074H80.69503c-43.842968 0-80.451847 36.608879-80.451847 87.759009v255.896792c0 43.842968 36.608879 80.378776 80.451847 80.378776h256.554437c51.296273 0 80.59799-36.535807 80.59799-80.378776V139.152083c7.307161-51.15013-36.608879-87.759009-80.59799-87.759009z m659.398245 153.596533L820.837409 22.164428c-29.301717-29.228646-87.905152-29.228646-117.279941 0L520.366932 204.989607c-29.301717 29.228646-29.301717 87.685937 0 116.914583l175.956446 182.752106c29.301717 29.228646 87.905152 29.228646 117.206869 0l175.883376-182.752106c43.91604-29.228646 43.91604-87.685937 7.234089-116.914583zM337.249467 599.722466H80.69503c-43.842968 0-80.451847 36.535807-80.451847 87.759009v255.823721A81.109492 81.109492 0 0 0 80.69503 1023.757043h256.554437c51.296273 0 80.59799-36.535807 80.59799-80.451847V687.481475c7.307161-51.223201-36.608879-87.759009-80.59799-87.759009z m549.498538 0H637.646872c-51.296273 0-80.59799 36.535807-80.59799 80.451847v255.823721C549.741721 987.221236 586.350599 1023.757043 637.646872 1023.757043h256.481366c51.223201 0 80.59799-36.535807 80.59799-80.451847V687.481475c0-51.223201-36.608879-87.759009-87.978223-87.759009z" p-id="1505" fill="#ffffff"></path></svg>