<?xml version="1.0" standalone="no"?><!DOCTYPE svg PUBLIC "-//W3C//DTD SVG 1.1//EN" "http://www.w3.org/Graphics/SVG/1.1/DTD/svg11.dtd"><svg t="1696384843561" class="icon" viewBox="0 0 1025 1024" version="1.1" xmlns="http://www.w3.org/2000/svg" p-id="1318" xmlns:xlink="http://www.w3.org/1999/xlink" width="200.1953125" height="200"><path d="M813.495375 614.4v58.514286a52.882286 52.882286 0 0 1-46.299429 58.221714 51.931429 51.931429 0 0 1-56.173714-48.054857 47.250286 47.250286 0 0 1 0-10.166857v-58.514286H314.295375v58.514286a52.955429 52.955429 0 0 1-46.445715 58.221714c-28.16 2.852571-53.321143-18.651429-56.100571-48.054857a58.953143 58.953143 0 0 1 0-10.166857v-58.514286H0.512518v277.942857c0 73.069714 51.273143 131.657143 115.273142 131.657143h793.673143c63.926857 0 115.273143-58.514286 115.273143-131.657143V614.4h-211.236571zM263.168518 475.428571c29.257143 0.950857 52.224 26.404571 51.126857 56.685715V533.942857h396.8a59.465143 59.465143 0 0 1 51.346285-58.514286c29.110857 0.950857 52.150857 26.404571 51.2 56.685715 0 0.658286 0 1.243429-0.146285 1.828571h211.236571V314.660571c0-73.142857-51.346286-131.730286-115.273143-131.730285H775.24166V131.657143c0-73.069714-51.346286-131.657143-115.346285-131.657143H365.422232c-63.926857 0-115.2 58.514286-115.2 131.657143v58.514286H115.78566c-64 0.146286-115.273143 58.587429-115.273142 131.730285v219.428572c70.436571 0 140.873143-7.387429 211.236571-7.387429a59.684571 59.684571 0 0 1 51.419429-58.514286z m100.205714-394.752l2.048-0.073142h294.473143c25.380571 0.731429 45.568 22.674286 44.982857 49.078857 0 0.731429 0 1.389714-0.146286 2.121143v58.514285h-384v-58.514285a47.250286 47.250286 0 0 1 42.642286-51.126858z" p-id="1319" fill="#ffffff"></path></svg>