<?xml version="1.0" standalone="no"?><!DOCTYPE svg PUBLIC "-//W3C//DTD SVG 1.1//EN" "http://www.w3.org/Graphics/SVG/1.1/DTD/svg11.dtd"><svg t="1696384834109" class="icon" viewBox="0 0 1024 1024" version="1.1" xmlns="http://www.w3.org/2000/svg" p-id="1132" xmlns:xlink="http://www.w3.org/1999/xlink" width="200" height="200"><path d="M923.516165 83.230715c-67.550353 0-122.307078 68.135204-122.307079 152.134507 0 82.098535 52.417319 149.283355 117.55516 152.0614l5.33677 0.073107c44.156291 0.950384 43.644546 82.975812-0.584851 82.975812H189.308163c-104.396 0-189.126367-105.273277-189.126367-235.110319C0.181796 105.52818 84.912163 0.254903 189.308163 0.254903h734.208002c44.59493 0 44.59493 82.975812 0 82.975812zM367.395457 193.913869H189.308163l-3.143577 0.146213c-17.106908 2.04698-30.266067 19.958059-30.266067 41.30514 0 22.882316 15.059927 41.524459 33.409644 41.524459h178.087294l3.216683-0.219319c17.180014-2.04698 30.119854-19.958059 30.119855-41.30514 0-22.882316-14.913714-41.451353-33.336538-41.451353zM105.162648 636.573378l-4.751919-0.073107-4.240174-0.292425C56.985502 631.163501 57.497247 557.837739 96.6823 553.670672l4.313281-0.146213H834.691837c104.322893 0 188.833941 105.200171 188.980154 234.964106 0 129.837042-84.584154 235.183425-188.980154 235.256532H100.410729c-44.448717 0-44.448717-82.975812 0-82.975812l4.751919-0.146213c65.795798-3.216683 117.555159-70.328398 117.555159-151.988294 0-82.098535-52.344213-149.283355-117.555159-152.0614z m551.441895 193.512753h177.941081l3.28979-0.146213c17.106908-2.120087 30.119854-19.958059 30.119854-41.30514 0-22.955423-14.986821-41.524459-33.409644-41.524459H656.604543l-3.28979 0.219319c-17.106908 2.04698-30.046748 19.884952-30.046748 41.232034 0 22.955423 14.913714 41.524459 33.336538 41.524459z" p-id="1133" fill="#ffffff"></path></svg>